<svg width="20" height="20" viewBox="0 0 20 20" fill="none" xmlns="http://www.w3.org/2000/svg">
<path d="M15.124 6.17773H8.60184C8.39613 6.17827 8.19255 6.21935 8.00273 6.29863C7.81292 6.37792 7.6406 6.49385 7.49564 6.6398C7.35067 6.78574 7.2359 6.95884 7.15789 7.14918C7.07989 7.33952 7.04018 7.54338 7.04103 7.74908V15.9285C7.04103 16.7961 7.73995 17.4999 8.60184 17.4999H15.124C15.3297 17.4993 15.5333 17.4583 15.7231 17.379C15.9129 17.2997 16.0852 17.1838 16.2302 17.0378C16.3752 16.8919 16.4899 16.7188 16.5679 16.5284C16.6459 16.3381 16.6856 16.1342 16.6848 15.9285V7.74908C16.6848 6.88152 15.9859 6.17773 15.124 6.17773Z" stroke="#26374E" stroke-linecap="round" stroke-linejoin="round"/>
<path d="M12.9485 6.17783V4.07135C12.9485 3.65459 12.7839 3.25486 12.4912 2.96054C12.3467 2.81483 12.1748 2.69913 11.9854 2.62009C11.796 2.54106 11.5929 2.50024 11.3876 2.5H4.8655C4.45198 2.5 4.05469 2.66541 3.76279 2.96054C3.46986 3.2561 3.30526 3.65522 3.30469 4.07135V12.2508C3.30469 12.6675 3.46928 13.0673 3.76198 13.3616C4.05469 13.6559 4.45117 13.8221 4.8655 13.8221H7.04252" stroke="#26374E" stroke-linecap="round" stroke-linejoin="round"/>
</svg>
