<svg width="31" height="31" viewBox="0 0 31 31" fill="none" xmlns="http://www.w3.org/2000/svg">
<path fill-rule="evenodd" clip-rule="evenodd" d="M13.5008 28.8327C13.5008 29.9373 14.3962 30.8327 15.5008 30.8327C16.6054 30.8327 17.5008 29.9373 17.5008 28.8327V17.4994H28.8327C29.9373 17.4994 30.8327 16.604 30.8327 15.4994C30.8327 14.3948 29.9373 13.4994 28.8327 13.4994H17.5008V2.16602C17.5008 1.06145 16.6054 0.166016 15.5008 0.166016C14.3962 0.166016 13.5008 1.06145 13.5008 2.16602V13.4994H2.16602C1.06145 13.4994 0.166016 14.3948 0.166016 15.4994C0.166016 16.604 1.06145 17.4994 2.16602 17.4994H13.5008V28.8327Z" fill="#BBCAD8"/>
</svg>
