<svg width="60" height="60" viewBox="0 0 60 60" fill="none" xmlns="http://www.w3.org/2000/svg">
<g filter="url(#filter0_d_2116_49979)">
<rect x="20" y="20" width="20" height="20" rx="10" fill="white"/>
<rect x="20.05" y="20.05" width="19.9" height="19.9" rx="9.95" stroke="#BBCAD8" stroke-width="0.1"/>
<path d="M28.9109 25.5682H31.0927C31.0927 25.2789 30.9778 25.0014 30.7732 24.7968C30.5686 24.5922 30.2911 24.4773 30.0018 24.4773C29.7124 24.4773 29.435 24.5922 29.2304 24.7968C29.0258 25.0014 28.9109 25.2789 28.9109 25.5682ZM28.1836 25.5682C28.1836 25.086 28.3752 24.6235 28.7161 24.2825C29.0571 23.9416 29.5196 23.75 30.0018 23.75C30.484 23.75 30.9464 23.9416 31.2874 24.2825C31.6284 24.6235 31.82 25.086 31.82 25.5682H35.4563C35.5528 25.5682 35.6453 25.6065 35.7135 25.6747C35.7816 25.7429 35.82 25.8354 35.82 25.9318C35.82 26.0283 35.7816 26.1208 35.7135 26.1889C35.6453 26.2571 35.5528 26.2955 35.4563 26.2955H34.6898L33.8214 33.8184C33.76 34.3501 33.5053 34.8408 33.1057 35.197C32.7061 35.5531 32.1894 35.75 31.6541 35.75H28.3494C27.8141 35.75 27.2975 35.5531 26.8979 35.197C26.4983 34.8408 26.2435 34.3501 26.1821 33.8184L25.3138 26.2955H24.5472C24.4508 26.2955 24.3583 26.2571 24.2901 26.1889C24.2219 26.1208 24.1836 26.0283 24.1836 25.9318C24.1836 25.8354 24.2219 25.7429 24.2901 25.6747C24.3583 25.6065 24.4508 25.5682 24.5472 25.5682H28.1836ZM26.9043 33.7355C26.9454 34.0899 27.1153 34.4169 27.3817 34.6543C27.6482 34.8917 27.9926 35.0228 28.3494 35.0227H31.6541C32.011 35.0228 32.3554 34.8917 32.6218 34.6543C32.8883 34.4169 33.0582 34.0899 33.0992 33.7355L33.9574 26.2955H26.0461L26.9043 33.7355ZM28.9109 28.1136C29.0073 28.1136 29.0998 28.1519 29.168 28.2201C29.2362 28.2883 29.2745 28.3808 29.2745 28.4773V32.8409C29.2745 32.9374 29.2362 33.0298 29.168 33.098C29.0998 33.1662 29.0073 33.2045 28.9109 33.2045C28.8144 33.2045 28.7219 33.1662 28.6537 33.098C28.5855 33.0298 28.5472 32.9374 28.5472 32.8409V28.4773C28.5472 28.3808 28.5855 28.2883 28.6537 28.2201C28.7219 28.1519 28.8144 28.1136 28.9109 28.1136ZM31.4563 28.4773C31.4563 28.3808 31.418 28.2883 31.3498 28.2201C31.2816 28.1519 31.1891 28.1136 31.0927 28.1136C30.9962 28.1136 30.9037 28.1519 30.8356 28.2201C30.7674 28.2883 30.729 28.3808 30.729 28.4773V32.8409C30.729 32.9374 30.7674 33.0298 30.8356 33.098C30.9037 33.1662 30.9962 33.2045 31.0927 33.2045C31.1891 33.2045 31.2816 33.1662 31.3498 33.098C31.418 33.0298 31.4563 32.9374 31.4563 32.8409V28.4773Z" fill="#26374E"/>
</g>
<defs>
<filter id="filter0_d_2116_49979" x="0" y="0" width="60" height="60" filterUnits="userSpaceOnUse" color-interpolation-filters="sRGB">
<feFlood flood-opacity="0" result="BackgroundImageFix"/>
<feColorMatrix in="SourceAlpha" type="matrix" values="0 0 0 0 0 0 0 0 0 0 0 0 0 0 0 0 0 0 127 0" result="hardAlpha"/>
<feOffset/>
<feGaussianBlur stdDeviation="10"/>
<feComposite in2="hardAlpha" operator="out"/>
<feColorMatrix type="matrix" values="0 0 0 0 0.5 0 0 0 0 0.457055 0 0 0 0 0.453988 0 0 0 0.2 0"/>
<feBlend mode="normal" in2="BackgroundImageFix" result="effect1_dropShadow_2116_49979"/>
<feBlend mode="normal" in="SourceGraphic" in2="effect1_dropShadow_2116_49979" result="shape"/>
</filter>
</defs>
</svg>
