<svg width="20" height="20" viewBox="0 0 20 20" fill="none" xmlns="http://www.w3.org/2000/svg">
<path d="M8.63761 4.52273H11.3649C11.3649 4.16107 11.2212 3.81422 10.9655 3.55849C10.7097 3.30276 10.3629 3.15909 10.0012 3.15909C9.63958 3.15909 9.29274 3.30276 9.03701 3.55849C8.78127 3.81422 8.63761 4.16107 8.63761 4.52273ZM7.72852 4.52273C7.72852 3.91996 7.96796 3.34189 8.39418 2.91567C8.8204 2.48945 9.39848 2.25 10.0012 2.25C10.604 2.25 11.1821 2.48945 11.6083 2.91567C12.0345 3.34189 12.274 3.91996 12.274 4.52273H16.8194C16.94 4.52273 17.0556 4.57062 17.1408 4.65586C17.2261 4.7411 17.274 4.85672 17.274 4.97727C17.274 5.09783 17.2261 5.21344 17.1408 5.29868C17.0556 5.38393 16.94 5.43182 16.8194 5.43182H15.8612L14.7758 14.8355C14.6991 15.5002 14.3806 16.1135 13.8811 16.5587C13.3816 17.0039 12.7358 17.25 12.0667 17.25H7.93579C7.26666 17.25 6.62089 17.0039 6.12137 16.5587C5.62184 16.1135 5.30342 15.5002 5.2267 14.8355L4.14124 5.43182H3.18306C3.06251 5.43182 2.94689 5.38393 2.86165 5.29868C2.77641 5.21344 2.72852 5.09783 2.72852 4.97727C2.72852 4.85672 2.77641 4.7411 2.86165 4.65586C2.94689 4.57062 3.06251 4.52273 3.18306 4.52273H7.72852ZM6.12942 14.7318C6.18072 15.1749 6.3931 15.5837 6.72617 15.8804C7.05923 16.1771 7.48974 16.341 7.93579 16.3409H12.0667C12.5127 16.341 12.9433 16.1771 13.2763 15.8804C13.6094 15.5837 13.8218 15.1749 13.8731 14.7318L14.9458 5.43182H5.0567L6.12942 14.7318ZM8.63761 7.70455C8.75816 7.70455 8.87378 7.75244 8.95902 7.83768C9.04426 7.92292 9.09215 8.03854 9.09215 8.15909V13.6136C9.09215 13.7342 9.04426 13.8498 8.95902 13.935C8.87378 14.0203 8.75816 14.0682 8.63761 14.0682C8.51705 14.0682 8.40144 14.0203 8.31619 13.935C8.23095 13.8498 8.18306 13.7342 8.18306 13.6136V8.15909C8.18306 8.03854 8.23095 7.92292 8.31619 7.83768C8.40144 7.75244 8.51705 7.70455 8.63761 7.70455ZM11.8194 8.15909C11.8194 8.03854 11.7715 7.92292 11.6863 7.83768C11.601 7.75244 11.4854 7.70455 11.3649 7.70455C11.2443 7.70455 11.1287 7.75244 11.0435 7.83768C10.9582 7.92292 10.9103 8.03854 10.9103 8.15909V13.6136C10.9103 13.7342 10.9582 13.8498 11.0435 13.935C11.1287 14.0203 11.2443 14.0682 11.3649 14.0682C11.4854 14.0682 11.601 14.0203 11.6863 13.935C11.7715 13.8498 11.8194 13.7342 11.8194 13.6136V8.15909Z" fill="#26374E"/>
</svg>
