<svg width="30" height="30" viewBox="0 0 30 30" fill="none" xmlns="http://www.w3.org/2000/svg">
<path d="M12.9535 6.78409H17.0444C17.0444 6.2416 16.8289 5.72133 16.4453 5.33774C16.0617 4.95414 15.5414 4.73864 14.9989 4.73864C14.4564 4.73864 13.9362 4.95414 13.5526 5.33774C13.169 5.72133 12.9535 6.2416 12.9535 6.78409ZM11.5898 6.78409C11.5898 5.87994 11.949 5.01283 12.5883 4.3735C13.2277 3.73417 14.0948 3.375 14.9989 3.375C15.9031 3.375 16.7702 3.73417 17.4095 4.3735C18.0489 5.01283 18.408 5.87994 18.408 6.78409H25.2262C25.407 6.78409 25.5805 6.85593 25.7083 6.98379C25.8362 7.11166 25.908 7.28508 25.908 7.46591C25.908 7.64674 25.8362 7.82016 25.7083 7.94803C25.5805 8.07589 25.407 8.14773 25.2262 8.14773H23.7889L22.1608 22.2532C22.0457 23.2503 21.568 24.1702 20.8187 24.8381C20.0695 25.5059 19.1008 25.8749 18.0971 25.875H11.9008C10.8971 25.8749 9.92841 25.5059 9.17912 24.8381C8.42984 24.1702 7.95221 23.2503 7.83712 22.2532L6.20893 8.14773H4.77166C4.59083 8.14773 4.41741 8.07589 4.28954 7.94803C4.16168 7.82016 4.08984 7.64674 4.08984 7.46591C4.08984 7.28508 4.16168 7.11166 4.28954 6.98379C4.41741 6.85593 4.59083 6.78409 4.77166 6.78409H11.5898ZM9.19121 22.0977C9.26815 22.7624 9.58672 23.3755 10.0863 23.8206C10.5859 24.2656 11.2317 24.5115 11.9008 24.5114H18.0971C18.7662 24.5115 19.4119 24.2656 19.9115 23.8206C20.4111 23.3755 20.7297 22.7624 20.8067 22.0977L22.4158 8.14773H7.58212L9.19121 22.0977ZM12.9535 11.5568C13.1343 11.5568 13.3077 11.6287 13.4356 11.7565C13.5635 11.8844 13.6353 12.0578 13.6353 12.2386V20.4205C13.6353 20.6013 13.5635 20.7747 13.4356 20.9026C13.3077 21.0304 13.1343 21.1023 12.9535 21.1023C12.7727 21.1023 12.5992 21.0304 12.4714 20.9026C12.3435 20.7747 12.2717 20.6013 12.2717 20.4205V12.2386C12.2717 12.0578 12.3435 11.8844 12.4714 11.7565C12.5992 11.6287 12.7727 11.5568 12.9535 11.5568ZM17.7262 12.2386C17.7262 12.0578 17.6544 11.8844 17.5265 11.7565C17.3986 11.6287 17.2252 11.5568 17.0444 11.5568C16.8636 11.5568 16.6901 11.6287 16.5623 11.7565C16.4344 11.8844 16.3626 12.0578 16.3626 12.2386V20.4205C16.3626 20.6013 16.4344 20.7747 16.5623 20.9026C16.6901 21.0304 16.8636 21.1023 17.0444 21.1023C17.2252 21.1023 17.3986 21.0304 17.5265 20.9026C17.6544 20.7747 17.7262 20.6013 17.7262 20.4205V12.2386Z" fill="#999999"/>
</svg>
