<svg width="56" height="56" viewBox="0 0 56 56" fill="none" xmlns="http://www.w3.org/2000/svg">
<g filter="url(#filter0_d_2695_17226)">
<rect x="2" y="2" width="50" height="50" rx="25" fill="#F6F2EF" shape-rendering="crispEdges"/>
<path d="M24.9535 18.7841H29.0444C29.0444 18.2416 28.8289 17.7213 28.4453 17.3377C28.0617 16.9541 27.5414 16.7386 26.9989 16.7386C26.4564 16.7386 25.9362 16.9541 25.5526 17.3377C25.169 17.7213 24.9535 18.2416 24.9535 18.7841ZM23.5898 18.7841C23.5898 17.8799 23.949 17.0128 24.5883 16.3735C25.2277 15.7342 26.0948 15.375 26.9989 15.375C27.9031 15.375 28.7702 15.7342 29.4095 16.3735C30.0489 17.0128 30.408 17.8799 30.408 18.7841H37.2262C37.407 18.7841 37.5805 18.8559 37.7083 18.9838C37.8362 19.1117 37.908 19.2851 37.908 19.4659C37.908 19.6467 37.8362 19.8202 37.7083 19.948C37.5805 20.0759 37.407 20.1477 37.2262 20.1477H35.7889L34.1608 34.2532C34.0457 35.2503 33.568 36.1702 32.8187 36.8381C32.0695 37.5059 31.1008 37.8749 30.0971 37.875H23.9008C22.8971 37.8749 21.9284 37.5059 21.1791 36.8381C20.4298 36.1702 19.9522 35.2503 19.8371 34.2532L18.2089 20.1477H16.7717C16.5908 20.1477 16.4174 20.0759 16.2895 19.948C16.1617 19.8202 16.0898 19.6467 16.0898 19.4659C16.0898 19.2851 16.1617 19.1117 16.2895 18.9838C16.4174 18.8559 16.5908 18.7841 16.7717 18.7841H23.5898ZM21.1912 34.0977C21.2682 34.7624 21.5867 35.3755 22.0863 35.8206C22.5859 36.2656 23.2317 36.5115 23.9008 36.5114H30.0971C30.7662 36.5115 31.4119 36.2656 31.9115 35.8206C32.4111 35.3755 32.7297 34.7624 32.8067 34.0977L34.4158 20.1477H19.5821L21.1912 34.0977ZM24.9535 23.5568C25.1343 23.5568 25.3077 23.6287 25.4356 23.7565C25.5635 23.8844 25.6353 24.0578 25.6353 24.2386V32.4205C25.6353 32.6013 25.5635 32.7747 25.4356 32.9026C25.3077 33.0304 25.1343 33.1023 24.9535 33.1023C24.7727 33.1023 24.5992 33.0304 24.4714 32.9026C24.3435 32.7747 24.2717 32.6013 24.2717 32.4205V24.2386C24.2717 24.0578 24.3435 23.8844 24.4714 23.7565C24.5992 23.6287 24.7727 23.5568 24.9535 23.5568ZM29.7262 24.2386C29.7262 24.0578 29.6544 23.8844 29.5265 23.7565C29.3986 23.6287 29.2252 23.5568 29.0444 23.5568C28.8636 23.5568 28.6901 23.6287 28.5623 23.7565C28.4344 23.8844 28.3626 24.0578 28.3626 24.2386V32.4205C28.3626 32.6013 28.4344 32.7747 28.5623 32.9026C28.6901 33.0304 28.8636 33.1023 29.0444 33.1023C29.2252 33.1023 29.3986 33.0304 29.5265 32.9026C29.6544 32.7747 29.7262 32.6013 29.7262 32.4205V24.2386Z" fill="#999999"/>
</g>
<defs>
<filter id="filter0_d_2695_17226" x="-4.66667" y="-4.66667" width="63.3333" height="63.3333" filterUnits="userSpaceOnUse" color-interpolation-filters="sRGB">
<feFlood flood-opacity="0" result="BackgroundImageFix"/>
<feColorMatrix in="SourceAlpha" type="matrix" values="0 0 0 0 0 0 0 0 0 0 0 0 0 0 0 0 0 0 127 0" result="hardAlpha"/>
<feOffset dx="1" dy="1"/>
<feGaussianBlur stdDeviation="1.5"/>
<feComposite in2="hardAlpha" operator="out"/>
<feColorMatrix type="matrix" values="0 0 0 0 0 0 0 0 0 0 0 0 0 0 0 0 0 0 0.1 0"/>
<feBlend mode="normal" in2="BackgroundImageFix" result="effect1_dropShadow_2695_17226"/>
<feBlend mode="normal" in="SourceGraphic" in2="effect1_dropShadow_2695_17226" result="shape"/>
</filter>
</defs>
</svg>
