<svg width="20" height="20" viewBox="0 0 20 20" fill="none" xmlns="http://www.w3.org/2000/svg">
<path d="M9.45839 14.363C9.62242 14.4591 9.80909 14.5098 9.99919 14.5098C10.1893 14.5098 10.376 14.4591 10.54 14.363L16.9697 10.5972C17.1306 10.5026 17.264 10.3675 17.3566 10.2054C17.4492 10.0433 17.4978 9.85972 17.4974 9.67302C17.4971 9.48631 17.4479 9.30295 17.3548 9.14114C17.2616 8.97933 17.1278 8.84471 16.9665 8.75067L10.5379 5.00412C10.3743 4.90882 10.1885 4.85862 9.99919 4.85862C9.80993 4.85862 9.62405 4.90882 9.46053 5.00412L3.03191 8.75067C2.87048 8.84483 2.73653 8.97964 2.6434 9.14166C2.55028 9.30369 2.50121 9.48728 2.50111 9.67416C2.501 9.86105 2.54985 10.0447 2.64279 10.2068C2.73573 10.369 2.86952 10.5039 3.03084 10.5983L9.45839 14.363ZM10.54 13.1231C10.3761 13.219 10.1896 13.2695 9.99972 13.2695C9.80983 13.2695 9.62336 13.219 9.45946 13.1231L3.5711 9.67501L9.46053 6.24191C9.62405 6.14662 9.80993 6.09641 9.99919 6.09641C10.1885 6.09641 10.3743 6.14662 10.5379 6.24191L16.4283 9.67501L10.54 13.1231ZM17.4126 7.3738L10.525 3.49779C10.3649 3.40782 10.1844 3.36056 10.0008 3.36056C9.81717 3.36056 9.63664 3.40782 9.47658 3.49779L2.58899 7.3738C2.48547 7.13367 2.47348 6.86395 2.55529 6.61558C2.63709 6.36722 2.80702 6.15741 3.03298 6.02581L9.46267 2.27925C9.62607 2.18416 9.81174 2.13406 10.0008 2.13406C10.1898 2.13406 10.3755 2.18416 10.5389 2.27925L16.9686 6.02581C17.1946 6.15742 17.3645 6.36722 17.4463 6.61558C17.5281 6.86395 17.5161 7.13367 17.4126 7.3738Z" fill="#26374E"/>
<rect width="6" height="9" transform="translate(13 18) rotate(-180)" fill="white"/>
<path d="M12.183 14.3449C12.2262 14.2939 12.2783 14.253 12.3361 14.2246C12.394 14.1962 12.4565 14.1809 12.5199 14.1797C12.5832 14.1785 12.6461 14.1913 12.7049 14.2174C12.7636 14.2435 12.817 14.2824 12.8618 14.3317C12.9066 14.381 12.9419 14.4397 12.9657 14.5044C12.9894 14.5691 13.001 14.6383 12.9999 14.708C12.9988 14.7778 12.9849 14.8465 12.9592 14.9102C12.9334 14.9739 12.8962 15.0312 12.8498 15.0788L10.3334 17.8481C10.245 17.9454 10.125 18 10 18C9.87497 18 9.75504 17.9454 9.66658 17.8481L7.15017 15.0788C7.10381 15.0312 7.06663 14.9739 7.04085 14.9102C7.01506 14.8465 7.00119 14.7778 7.00007 14.708C6.99896 14.6383 7.01061 14.5691 7.03434 14.5044C7.05807 14.4397 7.09339 14.381 7.13819 14.3317C7.183 14.2824 7.23637 14.2435 7.29512 14.2174C7.35387 14.1913 7.4168 14.1785 7.48015 14.1797C7.5435 14.1809 7.60598 14.1962 7.66386 14.2246C7.72173 14.253 7.77382 14.2939 7.81702 14.3449L9.52817 16.2281L9.52817 9.51926C9.52817 9.38154 9.57788 9.24947 9.66637 9.15209C9.75485 9.05471 9.87486 9 10 9C10.1251 9 10.2451 9.05471 10.3336 9.15209C10.4221 9.24947 10.4718 9.38154 10.4718 9.51926L10.4718 16.2281L12.183 14.3449Z" fill="#26374E"/>
</svg>
