<svg width="20" height="20" viewBox="0 0 20 20" fill="none" xmlns="http://www.w3.org/2000/svg">
<path d="M9.46096 12.8532C9.62499 12.9493 9.81166 13 10.0018 13C10.1919 13 10.3785 12.9493 10.5426 12.8532L16.9723 9.08744C17.1332 8.99283 17.2666 8.85775 17.3592 8.69562C17.4518 8.53349 17.5003 8.34995 17.5 8.16325C17.4997 7.97655 17.4505 7.79318 17.3573 7.63137C17.2642 7.46956 17.1303 7.33495 16.969 7.24091L10.5404 3.49435C10.3769 3.39906 10.191 3.34885 10.0018 3.34885C9.8125 3.34885 9.62662 3.39906 9.4631 3.49435L3.03448 7.2409C2.87305 7.33507 2.7391 7.46987 2.64597 7.6319C2.55285 7.79392 2.50378 7.97752 2.50368 8.1644C2.50357 8.35128 2.55242 8.53493 2.64536 8.69707C2.7383 8.8592 2.87209 8.99416 3.03341 9.08851L9.46096 12.8532ZM10.5426 11.6133C10.3787 11.7092 10.1922 11.7598 10.0023 11.7598C9.8124 11.7598 9.62593 11.7092 9.46203 11.6133L3.57367 8.16524L9.4631 4.73215C9.62662 4.63685 9.8125 4.58665 10.0018 4.58665C10.191 4.58665 10.3769 4.63685 10.5404 4.73215L16.4309 8.16524L10.5426 11.6133Z" fill="#26374E"/>
<rect width="6" height="9" transform="translate(13 17) rotate(-180)" fill="white"/>
<path d="M12.183 13.3449C12.2262 13.2939 12.2783 13.253 12.3361 13.2246C12.394 13.1962 12.4565 13.1809 12.5199 13.1797C12.5832 13.1785 12.6461 13.1913 12.7049 13.2174C12.7636 13.2435 12.817 13.2824 12.8618 13.3317C12.9066 13.381 12.9419 13.4397 12.9657 13.5044C12.9894 13.5691 13.001 13.6383 12.9999 13.708C12.9988 13.7778 12.9849 13.8465 12.9592 13.9102C12.9334 13.9739 12.8962 14.0312 12.8498 14.0788L10.3334 16.8481C10.245 16.9454 10.125 17 10 17C9.87497 17 9.75504 16.9454 9.66658 16.8481L7.15017 14.0788C7.10381 14.0312 7.06663 13.9739 7.04085 13.9102C7.01506 13.8465 7.00119 13.7778 7.00007 13.708C6.99896 13.6383 7.01061 13.5691 7.03434 13.5044C7.05807 13.4397 7.09339 13.381 7.13819 13.3317C7.183 13.2824 7.23637 13.2435 7.29512 13.2174C7.35387 13.1913 7.4168 13.1785 7.48015 13.1797C7.5435 13.1809 7.60598 13.1962 7.66386 13.2246C7.72173 13.253 7.77382 13.2939 7.81702 13.3449L9.52817 15.2281L9.52817 8.51926C9.52817 8.38154 9.57788 8.24947 9.66637 8.15209C9.75485 8.05471 9.87486 8 10 8C10.1251 8 10.2451 8.05471 10.3336 8.15209C10.4221 8.24947 10.4718 8.38154 10.4718 8.51926L10.4718 15.2281L12.183 13.3449Z" fill="#26374E"/>
</svg>
