<svg width="20" height="20" viewBox="0 0 20 20" fill="none" xmlns="http://www.w3.org/2000/svg">
<rect x="3" y="3" width="14" height="14" rx="1.5" stroke="#26374E"/>
<rect x="14.5" y="14.5" width="1" height="1" rx="0.2" fill="#26374E"/>
<rect x="14.5" y="12.5" width="1" height="1" rx="0.2" fill="#26374E"/>
<rect x="14.5" y="10.5" width="1" height="1" rx="0.2" fill="#26374E"/>
<rect x="14.5" y="8.5" width="1" height="1" rx="0.2" fill="#26374E"/>
<rect x="14.5" y="6.5" width="1" height="1" rx="0.2" fill="#26374E"/>
<rect x="14.5" y="4.5" width="1" height="1" rx="0.2" fill="#26374E"/>
<rect x="12.5" y="14.5" width="1" height="1" rx="0.2" fill="#26374E"/>
<rect x="10.5" y="14.5" width="1" height="1" rx="0.2" fill="#26374E"/>
<rect x="8.5" y="14.5" width="1" height="1" rx="0.2" fill="#26374E"/>
<rect x="6.5" y="14.5" width="1" height="1" rx="0.2" fill="#26374E"/>
<rect x="4.5" y="14.5" width="1" height="1" rx="0.2" fill="#26374E"/>
<path d="M12.5 12.7C12.5 12.5895 12.5895 12.5 12.7 12.5H13.3C13.4105 12.5 13.5 12.5895 13.5 12.7V13.3C13.5 13.4105 13.4105 13.5 13.3 13.5H12.7C12.5895 13.5 12.5 13.4105 12.5 13.3V12.7Z" fill="#26374E"/>
<path d="M10.5 12.7C10.5 12.5895 10.5895 12.5 10.7 12.5H11.3C11.4105 12.5 11.5 12.5895 11.5 12.7V13.3C11.5 13.4105 11.4105 13.5 11.3 13.5H10.7C10.5895 13.5 10.5 13.4105 10.5 13.3V12.7Z" fill="#26374E"/>
<path d="M10.5 10.7C10.5 10.5895 10.5895 10.5 10.7 10.5H11.3C11.4105 10.5 11.5 10.5895 11.5 10.7V11.3C11.5 11.4105 11.4105 11.5 11.3 11.5H10.7C10.5895 11.5 10.5 11.4105 10.5 11.3V10.7Z" fill="#26374E"/>
<path d="M8.5 12.7C8.5 12.5895 8.58954 12.5 8.7 12.5H9.3C9.41046 12.5 9.5 12.5895 9.5 12.7V13.3C9.5 13.4105 9.41046 13.5 9.3 13.5H8.7C8.58954 13.5 8.5 13.4105 8.5 13.3V12.7Z" fill="#26374E"/>
<path d="M8.5 10.7C8.5 10.5895 8.58954 10.5 8.7 10.5H9.3C9.41046 10.5 9.5 10.5895 9.5 10.7V11.3C9.5 11.4105 9.41046 11.5 9.3 11.5H8.7C8.58954 11.5 8.5 11.4105 8.5 11.3V10.7Z" fill="#26374E"/>
<path d="M6.5 12.7C6.5 12.5895 6.58954 12.5 6.7 12.5H7.3C7.41046 12.5 7.5 12.5895 7.5 12.7V13.3C7.5 13.4105 7.41046 13.5 7.3 13.5H6.7C6.58954 13.5 6.5 13.4105 6.5 13.3V12.7Z" fill="#26374E"/>
<rect x="12.5" y="10.5" width="1" height="1" rx="0.2" fill="#26374E"/>
<path d="M12.5 8.7C12.5 8.58954 12.5895 8.5 12.7 8.5H13.3C13.4105 8.5 13.5 8.58954 13.5 8.7V9.3C13.5 9.41046 13.4105 9.5 13.3 9.5H12.7C12.5895 9.5 12.5 9.41046 12.5 9.3V8.7Z" fill="#26374E"/>
<path d="M10.5 8.7C10.5 8.58954 10.5895 8.5 10.7 8.5H11.3C11.4105 8.5 11.5 8.58954 11.5 8.7V9.3C11.5 9.41046 11.4105 9.5 11.3 9.5H10.7C10.5895 9.5 10.5 9.41046 10.5 9.3V8.7Z" fill="#26374E"/>
<rect x="12.5" y="6.5" width="1" height="1" rx="0.2" fill="#26374E"/>
</svg>
