<svg width="24" height="24" viewBox="0 0 24 24" fill="none" xmlns="http://www.w3.org/2000/svg">
<path d="M8.66602 10.3333V7.83333C8.66602 5.99167 10.1577 4.5 11.9993 4.5C13.841 4.5 15.3327 5.99167 15.3327 7.83333V10.3333M11.9993 14.5C12.2204 14.5 12.4323 14.4122 12.5886 14.2559C12.7449 14.0996 12.8327 13.8877 12.8327 13.6667C12.8327 13.4457 12.7449 13.2337 12.5886 13.0774C12.4323 12.9211 12.2204 12.8333 11.9993 12.8333C11.7783 12.8333 11.5664 12.9211 11.4101 13.0774C11.2538 13.2337 11.166 13.4457 11.166 13.6667C11.166 13.8877 11.2538 14.0996 11.4101 14.2559C11.5664 14.4122 11.7783 14.5 11.9993 14.5ZM11.9993 14.5V17M7.49935 10.3333H16.4993C17.2327 10.3333 17.8327 10.9333 17.8327 11.6667V17.5C17.8327 18.6 16.9327 19.5 15.8327 19.5H8.16602C7.06602 19.5 6.16602 18.6 6.16602 17.5V11.6667C6.16602 10.9333 6.76602 10.3333 7.49935 10.3333Z" stroke="#26374E" stroke-miterlimit="10" stroke-linecap="round" stroke-linejoin="round"/>
</svg>
