<svg width="20" height="20" viewBox="0 0 20 20" fill="none" xmlns="http://www.w3.org/2000/svg">
<path d="M10.5397 2.63699C10.3756 2.54089 10.189 2.49023 9.99886 2.49023C9.80875 2.49023 9.62208 2.54089 9.45806 2.63699L3.02836 6.4028C2.8674 6.4974 2.734 6.63248 2.64142 6.79461C2.54884 6.95674 2.50029 7.14028 2.50062 7.32698C2.50094 7.51369 2.55012 7.69705 2.64327 7.85886C2.73641 8.02067 2.87028 8.15528 3.03157 8.24933L9.4602 11.9959C9.62372 12.0912 9.80959 12.1414 9.99886 12.1414C10.1881 12.1414 10.374 12.0912 10.5375 11.9959L16.9661 8.24933C17.1276 8.15517 17.2615 8.02036 17.3546 7.85834C17.4478 7.69631 17.4968 7.51272 17.4969 7.32583C17.497 7.13895 17.4482 6.9553 17.3553 6.79317C17.2623 6.63103 17.1285 6.49607 16.9672 6.40173L10.5397 2.63699ZM9.45806 3.87692C9.62196 3.78103 9.80843 3.73048 9.99832 3.73048C10.1882 3.73048 10.3747 3.78103 10.5386 3.87692L16.4269 7.32499L10.5375 10.7581C10.374 10.8534 10.1881 10.9036 9.99886 10.9036C9.80959 10.9036 9.62372 10.8534 9.4602 10.7581L3.5697 7.32499L9.45806 3.87692ZM2.58545 9.6262L9.47303 13.5022C9.6331 13.5922 9.81363 13.6394 9.99725 13.6394C10.1809 13.6394 10.3614 13.5922 10.5215 13.5022L17.4091 9.6262C17.5126 9.86633 17.5246 10.1361 17.4428 10.3844C17.361 10.6328 17.191 10.8426 16.9651 10.9742L10.5354 14.7207C10.372 14.8158 10.1863 14.8659 9.99725 14.8659C9.8082 14.8659 9.62252 14.8158 9.45913 14.7207L3.02943 10.9742C2.80348 10.8426 2.63355 10.6328 2.55174 10.3844C2.46994 10.1361 2.48193 9.86633 2.58545 9.6262ZM2.58545 12.2505L9.47303 16.1254C9.6331 16.2154 9.81363 16.2627 9.99725 16.2627C10.1809 16.2627 10.3614 16.2154 10.5215 16.1254L17.4091 12.2505C17.5126 12.4906 17.5246 12.7603 17.4428 13.0087C17.361 13.2571 17.191 13.4669 16.9651 13.5985L10.5354 17.345C10.372 17.4401 10.1863 17.4902 9.99725 17.4902C9.8082 17.4902 9.62252 17.4401 9.45913 17.345L3.02943 13.5985C2.80348 13.4669 2.63355 13.2571 2.55174 13.0087C2.46994 12.7603 2.48193 12.4906 2.58545 12.2505Z" fill="#26374E"/>
</svg>
