<svg width="31" height="32" viewBox="0 0 31 32" fill="none" xmlns="http://www.w3.org/2000/svg">
<path fill-rule="evenodd" clip-rule="evenodd" d="M13.5008 29.3327C13.5008 30.4373 14.3962 31.3327 15.5008 31.3327C16.6054 31.3327 17.5008 30.4373 17.5008 29.3327V17.9994H28.8327C29.9373 17.9994 30.8327 17.104 30.8327 15.9994C30.8327 14.8948 29.9373 13.9994 28.8327 13.9994H17.5008V2.66602C17.5008 1.56145 16.6054 0.666016 15.5008 0.666016C14.3962 0.666016 13.5008 1.56145 13.5008 2.66602V13.9994H2.16602C1.06145 13.9994 0.166016 14.8948 0.166016 15.9994C0.166016 17.104 1.06145 17.9994 2.16602 17.9994H13.5008V29.3327Z" fill="#BBCAD8"/>
</svg>
