<svg width="20" height="20" viewBox="0 0 20 20" fill="none" xmlns="http://www.w3.org/2000/svg">
<path d="M10.4111 17H17.8229M12.8817 4.64687L15.3523 7.11749M14.0149 3.51202C14.3427 3.18418 14.7874 3 15.251 3C15.7147 3 16.1593 3.18418 16.4872 3.51202C16.815 3.83987 16.9992 4.28452 16.9992 4.74816C16.9992 5.2118 16.815 5.65645 16.4872 5.9843L6.59641 15.8759C6.40049 16.0718 6.1583 16.2151 5.89228 16.2926L3.52707 16.9827C3.4562 17.0034 3.38109 17.0046 3.30958 16.9863C3.23807 16.968 3.1728 16.9308 3.12061 16.8786C3.06841 16.8264 3.0312 16.7611 3.01288 16.6896C2.99456 16.6181 2.9958 16.543 3.01647 16.4721L3.7066 14.1069C3.78419 13.8412 3.92751 13.5993 4.12331 13.4036L14.0149 3.51202Z" stroke="#26374E" stroke-linecap="round" stroke-linejoin="round"/>
</svg>
