<svg width="60" height="60" viewBox="0 0 60 60" fill="none" xmlns="http://www.w3.org/2000/svg">
<g filter="url(#filter0_d_2116_49981)">
<rect x="20" y="20" width="20" height="20" rx="10" fill="white"/>
<rect x="20.05" y="20.05" width="19.9" height="19.9" rx="9.95" stroke="#BBCAD8" stroke-width="0.1"/>
<path d="M33.1435 33.7215L33.8627 34.5786C32.8217 35.4107 31.5536 35.8441 30.2736 35.8597C29.2435 35.8724 28.2059 35.6143 27.2734 35.0759C25.1417 33.8452 24.0047 31.4068 24.432 28.9828C24.8595 26.5588 26.7619 24.6563 29.1859 24.2289C29.5227 24.1695 29.864 24.1397 30.206 24.1398L33.1435 33.7215ZM33.1435 33.7215C32.4183 34.2952 31.5402 34.6448 30.617 34.7256C29.6474 34.8104 28.6751 34.5945 27.8325 34.1072C26.9893 33.6211 26.3162 32.8871 25.9049 32.005C25.4935 31.1229 25.3639 30.1355 25.5335 29.177L33.1435 33.7215ZM35.6562 24.7453V27.9963H32.4052L33.5571 26.8445L33.6559 26.7457L33.5571 26.6468C33.0182 26.1074 32.3571 25.7061 31.6299 25.4769C30.9028 25.2478 30.131 25.1975 29.3803 25.3303C29.3803 25.3303 29.3803 25.3303 29.3803 25.3303L35.6562 24.7453ZM35.6562 24.7453L34.5451 25.8565L34.4463 25.9553L34.3474 25.8565C33.2544 24.7646 31.7632 24.1407 30.206 24.1398L35.6562 24.7453Z" fill="#26374E" stroke="#FAF9F7" stroke-width="0.279626"/>
</g>
<defs>
<filter id="filter0_d_2116_49981" x="0" y="0" width="60" height="60" filterUnits="userSpaceOnUse" color-interpolation-filters="sRGB">
<feFlood flood-opacity="0" result="BackgroundImageFix"/>
<feColorMatrix in="SourceAlpha" type="matrix" values="0 0 0 0 0 0 0 0 0 0 0 0 0 0 0 0 0 0 127 0" result="hardAlpha"/>
<feOffset/>
<feGaussianBlur stdDeviation="10"/>
<feComposite in2="hardAlpha" operator="out"/>
<feColorMatrix type="matrix" values="0 0 0 0 0.5 0 0 0 0 0.457055 0 0 0 0 0.453988 0 0 0 0.2 0"/>
<feBlend mode="normal" in2="BackgroundImageFix" result="effect1_dropShadow_2116_49981"/>
<feBlend mode="normal" in="SourceGraphic" in2="effect1_dropShadow_2116_49981" result="shape"/>
</filter>
</defs>
</svg>
