<svg width="56" height="56" viewBox="0 0 56 56" fill="none" xmlns="http://www.w3.org/2000/svg">
<g filter="url(#filter0_d_2695_17233)">
<rect x="2" y="2" width="50" height="50" rx="25" fill="#F6F2EF" shape-rendering="crispEdges"/>
<path d="M32.3125 38.25V32.2938C32.3122 32.0326 32.2604 31.774 32.16 31.5328C32.0597 31.2916 31.9128 31.0726 31.7277 30.8882C31.5427 30.7039 31.3231 30.5578 31.0815 30.4584C30.84 30.3589 30.5812 30.3081 30.32 30.3088H23.68C23.4188 30.3081 23.16 30.3589 22.9185 30.4584C22.6769 30.5578 22.4573 30.7039 22.2723 30.8882C22.0872 31.0726 21.9403 31.2916 21.84 31.5328C21.7396 31.774 21.6878 32.0326 21.6875 32.2938V38.25M32.3125 16.1063V19.0588C32.3122 19.32 32.2604 19.5786 32.16 19.8197C32.0597 20.0609 31.9128 20.2799 31.7277 20.4643C31.5427 20.6486 31.3231 20.7947 31.0815 20.8941C30.84 20.9936 30.5812 21.0444 30.32 21.0438H23.68C23.4188 21.0444 23.16 20.9936 22.9185 20.8941C22.6769 20.7947 22.4573 20.6486 22.2723 20.4643C22.0872 20.2799 21.9403 20.0609 21.84 19.8197C21.7396 19.5786 21.6878 19.32 21.6875 19.0588V15.75M32.3125 16.1063C31.7941 15.8715 31.2316 15.75 30.6625 15.75H21.6875M32.3125 16.1063C32.7425 16.3013 33.1387 16.5738 33.48 16.9125L36.4575 19.8813C36.8272 20.2492 37.1207 20.6864 37.321 21.168C37.5214 21.6496 37.6247 22.1659 37.625 22.6875V34.2775C37.6247 34.8 37.5213 35.3174 37.3209 35.7999C37.1204 36.2825 36.8268 36.7208 36.4568 37.0897C36.0868 37.4587 35.6476 37.7511 35.1645 37.9502C34.6814 38.1493 34.1638 38.2512 33.6413 38.25H20.36C19.8375 38.2513 19.3198 38.1496 18.8366 37.9507C18.3534 37.7517 17.9142 37.4595 17.5441 37.0906C17.174 36.7218 16.8802 36.2836 16.6796 35.8011C16.479 35.3186 16.3755 34.8013 16.375 34.2788V19.72C16.3757 19.1976 16.4793 18.6804 16.68 18.1981C16.8807 17.7157 17.1744 17.2777 17.5446 16.909C17.9147 16.5402 18.3538 16.2481 18.8369 16.0492C19.32 15.8504 19.8376 15.7487 20.36 15.75H21.6875" stroke="#999999" stroke-linecap="round" stroke-linejoin="round"/>
</g>
<defs>
<filter id="filter0_d_2695_17233" x="-4.66667" y="-4.66667" width="63.3333" height="63.3333" filterUnits="userSpaceOnUse" color-interpolation-filters="sRGB">
<feFlood flood-opacity="0" result="BackgroundImageFix"/>
<feColorMatrix in="SourceAlpha" type="matrix" values="0 0 0 0 0 0 0 0 0 0 0 0 0 0 0 0 0 0 127 0" result="hardAlpha"/>
<feOffset dx="1" dy="1"/>
<feGaussianBlur stdDeviation="1.5"/>
<feComposite in2="hardAlpha" operator="out"/>
<feColorMatrix type="matrix" values="0 0 0 0 0 0 0 0 0 0 0 0 0 0 0 0 0 0 0.1 0"/>
<feBlend mode="normal" in2="BackgroundImageFix" result="effect1_dropShadow_2695_17233"/>
<feBlend mode="normal" in="SourceGraphic" in2="effect1_dropShadow_2695_17233" result="shape"/>
</filter>
</defs>
</svg>
