<svg width="20" height="20" viewBox="0 0 20 20" fill="none" xmlns="http://www.w3.org/2000/svg">
<path d="M5 3H15C16.108 3 17 3.892 17 5V15C17 16.108 16.108 17 15 17H5C3.892 17 3 16.108 3 15V5C3 3.892 3.892 3 5 3Z" stroke="#26374E" stroke-linecap="round" stroke-linejoin="round"/>
<path d="M6 6H7" stroke="#26374E" stroke-linecap="round" stroke-linejoin="round"/>
<path d="M8 7C7.73478 7 7.48043 6.89464 7.29289 6.70711C7.10536 6.51957 7 6.26522 7 6C7 5.73478 7.10536 5.48043 7.29289 5.29289C7.48043 5.10536 7.73478 5 8 5C8.13132 5 8.26136 5.02587 8.38268 5.07612C8.50401 5.12638 8.61425 5.20003 8.70711 5.29289C8.79997 5.38575 8.87362 5.49599 8.92388 5.61732C8.97413 5.73864 9 5.86868 9 6C9 6.13132 8.97413 6.26136 8.92388 6.38268C8.87362 6.50401 8.79997 6.61425 8.70711 6.70711C8.61425 6.79997 8.50401 6.87362 8.38268 6.92388C8.26136 6.97413 8.13132 7 8 7Z" stroke="#26374E" stroke-linecap="round" stroke-linejoin="round"/>
<path d="M9 6.00002L14 6" stroke="#26374E" stroke-linecap="round" stroke-linejoin="round"/>
<path d="M14 10H13" stroke="#26374E" stroke-linecap="round" stroke-linejoin="round"/>
<path d="M12 11C12.2652 11 12.5196 10.8946 12.7071 10.7071C12.8946 10.5196 13 10.2652 13 10C13 9.73478 12.8946 9.48043 12.7071 9.29289C12.5196 9.10536 12.2652 9 12 9C11.7348 9 11.4804 9.10536 11.2929 9.29289C11.1054 9.48043 11 9.73478 11 10C11 10.2652 11.1054 10.5196 11.2929 10.7071C11.4804 10.8946 11.7348 11 12 11Z" stroke="#26374E" stroke-linecap="round" stroke-linejoin="round"/>
<path d="M11 10L6 10" stroke="#26374E" stroke-linecap="round" stroke-linejoin="round"/>
<path d="M6 14H7" stroke="#26374E" stroke-linecap="round" stroke-linejoin="round"/>
<path d="M8 15C7.73478 15 7.48043 14.8946 7.29289 14.7071C7.10536 14.5196 7 14.2652 7 14C7 13.7348 7.10536 13.4804 7.29289 13.2929C7.48043 13.1054 7.73478 13 8 13C8.13132 13 8.26136 13.0259 8.38268 13.0761C8.50401 13.1264 8.61425 13.2 8.70711 13.2929C8.79997 13.3858 8.87362 13.496 8.92388 13.6173C8.97413 13.7386 9 13.8687 9 14C9 14.1313 8.97413 14.2614 8.92388 14.3827C8.87362 14.504 8.79997 14.6142 8.70711 14.7071C8.61425 14.8 8.50401 14.8736 8.38268 14.9239C8.26136 14.9741 8.13132 15 8 15Z" stroke="#26374E" stroke-linecap="round" stroke-linejoin="round"/>
<path d="M9 14L14 14" stroke="#26374E" stroke-linecap="round" stroke-linejoin="round"/>
</svg>
