<svg width="20" height="20" viewBox="0 0 20 20" fill="none" xmlns="http://www.w3.org/2000/svg">
<path d="M10.5416 5.63699C10.3776 5.54089 10.1909 5.49023 10.0008 5.49023C9.81071 5.49023 9.62404 5.54089 9.46001 5.63699L3.03032 9.4028C2.86936 9.4974 2.73596 9.63248 2.64337 9.79461C2.55079 9.95674 2.50225 10.1403 2.50257 10.327C2.5029 10.5137 2.55208 10.6971 2.64522 10.8589C2.73837 11.0207 2.87224 11.1553 3.03353 11.2493L9.46215 14.9959C9.62567 15.0912 9.81155 15.1414 10.0008 15.1414C10.1901 15.1414 10.3759 15.0912 10.5395 14.9959L16.9681 11.2493C17.1295 11.1552 17.2635 11.0204 17.3566 10.8583C17.4497 10.6963 17.4988 10.5127 17.4989 10.3258C17.499 10.139 17.4502 9.9553 17.3572 9.79317C17.2643 9.63103 17.1305 9.49608 16.9692 9.40173L10.5416 5.63699ZM9.46001 6.87692C9.62391 6.78103 9.81038 6.73048 10.0003 6.73048C10.1902 6.73048 10.3766 6.78103 10.5405 6.87692L16.4289 10.325L10.5395 13.7581C10.3759 13.8534 10.1901 13.9036 10.0008 13.9036C9.81155 13.9036 9.62567 13.8534 9.46215 13.7581L3.57165 10.325L9.46001 6.87692ZM2.58741 12.6262L9.47499 16.5022C9.63505 16.5922 9.81558 16.6394 9.99921 16.6394C10.1828 16.6394 10.3634 16.5922 10.5234 16.5022L17.411 12.6262C17.5145 12.8663 17.5265 13.1361 17.4447 13.3844C17.3629 13.6328 17.193 13.8426 16.967 13.9742L10.5373 17.7207C10.3739 17.8158 10.1883 17.8659 9.99921 17.8659C9.81015 17.8659 9.62448 17.8158 9.46108 17.7207L3.03139 13.9742C2.80543 13.8426 2.6355 13.6328 2.5537 13.3844C2.47189 13.1361 2.48389 12.8663 2.58741 12.6262Z" fill="#26374E"/>
<rect width="6" height="9" transform="translate(7 2)" fill="white"/>
<path d="M7.81702 5.65511C7.77382 5.70613 7.72173 5.74705 7.66386 5.77543C7.60598 5.80381 7.5435 5.81907 7.48015 5.8203C7.4168 5.82153 7.35387 5.80871 7.29512 5.78259C7.23637 5.75647 7.183 5.7176 7.13819 5.66829C7.09339 5.61899 7.05807 5.56025 7.03434 5.4956C7.01061 5.43094 6.99896 5.36169 7.00007 5.29196C7.00119 5.22224 7.01506 5.15348 7.04085 5.08979C7.06663 5.02609 7.10381 4.96877 7.15017 4.92123L9.66658 2.15186C9.75504 2.05462 9.87497 2 10 2C10.125 2 10.245 2.05462 10.3334 2.15186L12.8498 4.92123C12.8962 4.96877 12.9334 5.02609 12.9592 5.08979C12.9849 5.15348 12.9988 5.22224 12.9999 5.29196C13.001 5.36169 12.9894 5.43094 12.9657 5.4956C12.9419 5.56025 12.9066 5.61899 12.8618 5.66829C12.817 5.7176 12.7636 5.75647 12.7049 5.78259C12.6461 5.80871 12.5832 5.82153 12.5199 5.8203C12.4565 5.81907 12.394 5.80381 12.3361 5.77543C12.2783 5.74705 12.2262 5.70613 12.183 5.65511L10.4718 3.77194V10.4807C10.4718 10.6185 10.4221 10.7505 10.3336 10.8479C10.2451 10.9453 10.1251 11 10 11C9.87486 11 9.75485 10.9453 9.66637 10.8479C9.57788 10.7505 9.52817 10.6185 9.52817 10.4807V3.77194L7.81702 5.65511Z" fill="#26374E"/>
</svg>
