<svg width="20" height="20" viewBox="0 0 20 20" fill="none" xmlns="http://www.w3.org/2000/svg">
<path d="M10.539 7.14675C10.375 7.05066 10.1883 7 9.99824 7C9.80814 7 9.62147 7.05066 9.45744 7.14675L3.02775 10.9126C2.86679 11.0072 2.73339 11.1422 2.6408 11.3044C2.54822 11.4665 2.49968 11.65 2.5 11.8367C2.50033 12.0235 2.54951 12.2068 2.64265 12.3686C2.7358 12.5304 2.86967 12.6651 3.03096 12.7591L9.45958 16.5056C9.6231 16.6009 9.80898 16.6511 9.99824 16.6511C10.1875 16.6511 10.3734 16.6009 10.5369 16.5056L16.9655 12.7591C17.127 12.6649 17.2609 12.5301 17.354 12.3681C17.4472 12.2061 17.4962 12.0225 17.4963 11.8356C17.4964 11.6487 17.4476 11.4651 17.3546 11.3029C17.2617 11.1408 17.1279 11.0058 16.9666 10.9115L10.539 7.14675ZM9.45744 8.38669C9.62134 8.29079 9.80781 8.24025 9.9977 8.24025C10.1876 8.24025 10.3741 8.29079 10.538 8.38669L16.4263 11.8348L10.5369 15.2679C10.3734 15.3631 10.1875 15.4134 9.99824 15.4134C9.80898 15.4134 9.6231 15.3631 9.45958 15.2679L3.56908 11.8348L9.45744 8.38669Z" fill="#26374E"/>
<rect width="6" height="9" transform="translate(7 3)" fill="white"/>
<path d="M7.81702 6.65511C7.77382 6.70613 7.72173 6.74705 7.66386 6.77543C7.60598 6.80381 7.5435 6.81907 7.48015 6.8203C7.4168 6.82153 7.35387 6.80871 7.29512 6.78259C7.23637 6.75647 7.183 6.7176 7.13819 6.66829C7.09339 6.61899 7.05807 6.56025 7.03434 6.4956C7.01061 6.43094 6.99896 6.36169 7.00007 6.29196C7.00119 6.22224 7.01506 6.15348 7.04085 6.08979C7.06663 6.02609 7.10381 5.96877 7.15017 5.92123L9.66658 3.15186C9.75504 3.05462 9.87497 3 10 3C10.125 3 10.245 3.05462 10.3334 3.15186L12.8498 5.92123C12.8962 5.96877 12.9334 6.02609 12.9592 6.08979C12.9849 6.15348 12.9988 6.22224 12.9999 6.29196C13.001 6.36169 12.9894 6.43094 12.9657 6.4956C12.9419 6.56025 12.9066 6.61899 12.8618 6.66829C12.817 6.7176 12.7636 6.75647 12.7049 6.78259C12.6461 6.80871 12.5832 6.82153 12.5199 6.8203C12.4565 6.81907 12.394 6.80381 12.3361 6.77543C12.2783 6.74705 12.2262 6.70613 12.183 6.65511L10.4718 4.77194V11.4807C10.4718 11.6185 10.4221 11.7505 10.3336 11.8479C10.2451 11.9453 10.1251 12 10 12C9.87486 12 9.75485 11.9453 9.66637 11.8479C9.57788 11.7505 9.52817 11.6185 9.52817 11.4807V4.77194L7.81702 6.65511Z" fill="#26374E"/>
</svg>
