<svg width="24" height="24" viewBox="0 0 24 24" fill="none" xmlns="http://www.w3.org/2000/svg">
    <path d="M3.18219 12.8094C4.23319 14.6144 7.19519 18.8114 12.0002 18.8114C16.8132 18.8114 19.7702 14.6124 20.8202 12.8094C20.9633 12.5643 21.0386 12.2856 21.0384 12.0018C21.0382 11.718 20.9626 11.4393 20.8192 11.1944C19.7692 9.39041 16.8092 5.19141 12.0002 5.19141C7.19119 5.19141 4.23219 9.38841 3.18219 11.1924C3.03859 11.4376 2.96289 11.7167 2.96289 12.0009C2.96289 12.2851 3.03859 12.5642 3.18219 12.8094Z" stroke="#BBCAD8" stroke-linejoin="round"/>
    <path d="M12 14.625C12.6962 14.625 13.3639 14.3484 13.8562 13.8562C14.3484 13.3639 14.625 12.6962 14.625 12C14.625 11.3038 14.3484 10.6361 13.8562 10.1438C13.3639 9.65156 12.6962 9.375 12 9.375C11.3038 9.375 10.6361 9.65156 10.1438 10.1438C9.65156 10.6361 9.375 11.3038 9.375 12C9.375 12.6962 9.65156 13.3639 10.1438 13.8562C10.6361 14.3484 11.3038 14.625 12 14.625Z" stroke="#BBCAD8" stroke-width="1.5" stroke-linejoin="round"/>
</svg>