<svg width="284" height="104" viewBox="0 0 284 104" fill="none" xmlns="http://www.w3.org/2000/svg">
    <path d="M81.4596 21.1504C82.2095 24.3441 87.0837 27.7257 88.1148 44.07C88.1148 68.3047 68.4305 88.1245 44.1531 88.1245H10.2211C4.6907 88.1245 0.285156 83.6157 0.285156 78.1676V68.4926H44.2469C65.056 68.4926 77.0541 40.7824 81.5534 21.2443L81.4596 21.1504Z" fill="url(#paint0_linear_2087_43383)"/>
    <path d="M21.471 78.0742V73.5654V68.493V2.83398L0.00567017 9.03355V68.493V73.5654V78.0742C0.00567017 80.7983 -0.1818 84.8374 1.59916 86.6221C3.38013 88.4068 7.22326 88.0311 10.0353 88.0311H21.5647H31.5006C25.9703 88.0311 21.5647 83.5223 21.5647 78.0742H21.471Z" fill="url(#paint1_linear_2087_43383)"/>
    <path d="M43.9637 0.0162316H10.0316C7.31328 0.0162316 2.90774 -0.265567 1.12677 1.51916C-0.466722 3.11602 0.376893 6.59153 0.0956881 9.03379H0.00195312V10.067V19.7421V29.699C0.00195312 24.157 4.50123 19.7421 9.93786 19.7421H21.4673H43.8699C64.6791 19.7421 77.7083 46.3251 82.2075 65.8632C82.9574 62.6695 87.363 60.9787 87.9254 44.0707C87.9254 19.8361 68.0536 0.0162316 43.7762 0.0162316H43.9637Z" fill="url(#paint2_linear_2087_43383)"/>
    <path fill-rule="evenodd" clip-rule="evenodd" d="M127.392 67.7422L131.797 70.2784C132.922 70.936 133.391 72.4389 132.735 73.66C131.891 75.3508 131.048 76.8537 130.11 78.2627C129.173 79.6717 128.142 80.8928 127.017 82.02C127.017 82.02 126.923 82.114 126.829 82.114C125.798 83.1472 124.674 83.9926 123.549 84.838C122.33 85.6834 121.018 86.341 119.706 86.9046L119.612 86.9985C118.3 87.5621 116.894 87.9378 115.394 88.2196C113.894 88.5014 112.301 88.5953 110.613 88.5953C103.115 88.5953 97.1155 85.8713 92.8037 80.4232C90.6478 77.7931 89.148 74.9751 88.0232 71.9692C86.9921 68.9634 86.4297 65.7697 86.4297 62.3881C86.4297 59.2883 86.8984 56.2824 87.8357 53.4645C88.7731 50.6465 90.0854 48.0163 91.8663 45.5741C94.116 42.3804 96.8343 40.0321 99.9275 38.4352C103.021 36.8383 106.489 36.0869 110.238 36.0869C114.175 36.0869 117.737 36.9323 120.83 38.5291C124.017 40.126 126.736 42.5682 129.173 45.8559C130.86 48.1103 132.172 50.7404 133.016 53.5584C133.86 56.3764 134.328 59.4762 134.328 62.8577C134.328 64.2667 133.297 65.3939 132.079 65.3939H96.8343C97.0217 66.709 97.3029 67.9301 97.7716 69.1512C98.4278 71.0299 99.3651 72.6268 100.677 74.0358C101.99 75.4447 103.396 76.5719 104.989 77.2295C106.583 77.9809 108.27 78.2627 110.238 78.2627C111.176 78.2627 112.113 78.1688 113.05 77.9809C113.988 77.7931 114.831 77.5113 115.769 77.2295C116.612 76.8537 117.456 76.478 118.206 76.0083C118.956 75.5387 119.612 75.069 120.174 74.5054L120.268 74.4115C120.83 73.8479 121.393 73.1904 122.049 72.251C122.705 71.3117 123.455 70.0906 124.205 68.6816C124.861 67.4604 126.267 67.0847 127.392 67.8362V67.7422ZM123.08 55.1552C122.986 54.9674 122.893 54.6856 122.799 54.4977C122.33 53.4645 121.862 52.5251 121.299 51.7737C120.737 51.0222 120.081 50.2707 119.331 49.7071C118.581 49.0496 117.643 48.486 116.706 48.0163C115.769 47.5467 114.738 47.1709 113.707 46.8892H113.519C112.582 46.7013 111.551 46.6074 110.52 46.6074C108.739 46.6074 107.051 46.8892 105.552 47.5467C104.052 48.1103 102.646 49.0496 101.427 50.2707L101.334 50.3647C100.49 51.2101 99.7401 52.2433 99.0839 53.5584C98.8027 54.122 98.5215 54.6856 98.334 55.2492H123.174L123.08 55.1552ZM141.265 19.5547H146.608C147.92 19.5547 148.951 20.6819 148.951 22.0909V84.838C148.951 86.247 147.92 87.3742 146.608 87.3742H141.265C139.952 87.3742 138.921 86.247 138.921 84.838V22.0909C138.921 20.6819 139.952 19.5547 141.265 19.5547ZM157.856 37.0262H163.199C164.511 37.0262 165.542 38.1534 165.542 39.5624V41.441C166.761 40.3139 168.073 39.2806 169.479 38.5291C171.072 37.6837 172.666 37.0262 174.447 36.5565C176.134 36.0869 178.009 35.899 179.883 35.899C183.164 35.899 186.257 36.5565 189.069 37.8716C191.882 39.1867 194.412 41.0653 196.756 43.6015C199.099 46.1377 200.786 48.9557 202.005 52.0555C203.223 55.1552 203.786 58.5368 203.786 62.1063C203.786 65.7697 203.223 69.1512 202.005 72.251C200.88 75.3508 199.099 78.2627 196.849 80.7989V80.8928C194.6 83.429 191.975 85.3077 189.257 86.6228C186.445 87.9378 183.352 88.5953 180.165 88.5953C178.384 88.5953 176.603 88.4075 174.916 87.9378C173.228 87.5621 171.541 86.9046 170.041 86.0592C168.542 85.3077 167.135 84.2744 165.823 83.1472V101.464C165.823 102.873 164.792 104 163.48 104H158.137C156.825 104 155.794 102.873 155.794 101.464V39.6563C155.794 38.2473 156.825 37.1201 158.137 37.1201L157.856 37.0262ZM179.415 46.6074C177.353 46.6074 175.572 46.9831 173.884 47.7345C172.197 48.486 170.697 49.6132 169.385 51.1161C167.979 52.6191 167.042 54.3098 166.292 56.1885V56.2824C165.636 58.1611 165.261 60.2276 165.261 62.3881C165.261 65.3939 165.823 68.024 167.042 70.3724C167.604 71.4996 168.354 72.6268 169.198 73.4722C170.041 74.4115 171.072 75.1629 172.197 75.9144L172.291 76.0083C173.416 76.6659 174.541 77.1355 175.759 77.5113C176.978 77.887 178.196 77.9809 179.415 77.9809C180.633 77.9809 181.852 77.7931 182.977 77.5113H183.07C184.195 77.1355 185.32 76.6659 186.351 76.0083C187.476 75.3508 188.413 74.5054 189.257 73.5661C190.101 72.6268 190.85 71.4996 191.507 70.1845C192.163 68.9634 192.631 67.6483 193.006 66.3333C193.288 65.0182 193.475 63.7031 193.475 62.2941C193.475 60.8851 193.288 59.5701 193.006 58.255C192.725 56.94 192.163 55.6249 191.507 54.4038C190.85 53.1827 190.101 52.0555 189.257 51.1161C188.413 50.1768 187.476 49.3314 186.351 48.6739C185.226 48.0163 184.102 47.4527 182.977 47.1709C181.758 46.7952 180.54 46.7013 179.227 46.7013L179.415 46.6074ZM247.841 67.6483L252.247 70.1845C253.372 70.842 253.84 72.345 253.184 73.5661C252.341 75.2569 251.497 76.7598 250.56 78.1688C249.622 79.5778 248.591 80.7989 247.466 81.9261C247.466 81.9261 247.373 82.02 247.279 82.02C246.248 83.0533 245.123 83.8987 243.998 84.7441C242.78 85.5895 241.467 86.247 240.155 86.8106L240.061 86.9046C238.749 87.4681 237.343 87.8439 235.843 88.1257C234.343 88.4075 232.75 88.5014 231.063 88.5014C223.564 88.5014 217.565 85.7774 213.253 80.3293C211.097 77.6991 209.597 74.8811 208.473 71.8753C207.442 68.8694 206.879 65.6757 206.879 62.2941C206.879 59.1944 207.348 56.1885 208.285 53.3705C209.223 50.5525 210.535 47.9224 212.316 45.4802C214.565 42.2864 217.284 39.9381 220.377 38.3413C223.47 36.7444 226.938 35.9929 230.688 35.9929C234.625 35.9929 238.187 36.8383 241.28 38.4352C244.467 40.0321 247.185 42.4743 249.622 45.762C251.31 48.0163 252.622 50.6465 253.465 53.4645C254.309 56.2824 254.778 59.3822 254.778 62.7638C254.778 64.1728 253.747 65.3 252.528 65.3H217.284C217.471 66.6151 217.752 67.8362 218.221 69.0573C218.877 70.936 219.815 72.5328 221.127 73.9418C222.439 75.3508 223.845 76.478 225.439 77.1355C227.032 77.887 228.719 78.1688 230.688 78.1688C231.625 78.1688 232.563 78.0749 233.5 77.887C234.437 77.6991 235.281 77.4173 236.218 77.1355C237.062 76.7598 237.905 76.3841 238.655 75.9144C239.405 75.4447 240.061 74.9751 240.624 74.4115L240.717 74.3176C241.28 73.754 241.842 73.0964 242.498 72.1571C243.155 71.2178 243.904 69.9966 244.654 68.5876C245.31 67.3665 246.716 66.9908 247.841 67.7422V67.6483ZM243.529 55.0613C243.436 54.8734 243.342 54.5916 243.248 54.4038C242.78 53.3705 242.311 52.4312 241.749 51.6797C241.186 50.9283 240.53 50.1768 239.78 49.6132C239.03 48.9557 238.093 48.3921 237.156 47.9224C236.218 47.4527 235.187 47.077 234.156 46.7952H233.969C233.031 46.6074 232 46.5134 230.969 46.5134C229.188 46.5134 227.501 46.7952 226.001 47.4527C224.501 48.0163 223.095 48.9557 221.877 50.1768L221.783 50.2707C220.939 51.1161 220.189 52.1494 219.533 53.4645C219.252 54.028 218.971 54.5916 218.783 55.1552H243.623L243.529 55.0613ZM260.496 37.0262H266.026C267.338 37.0262 268.369 38.1534 268.369 39.5624C268.932 39.0927 269.4 38.6231 269.963 38.2473C271.088 37.4959 272.212 36.9323 273.337 36.5565C274.556 36.1808 275.681 35.9929 276.899 35.9929C278.774 35.9929 280.742 36.6505 282.804 37.8716C283.929 38.5291 284.304 40.0321 283.742 41.2532L283.648 41.3471L280.836 46.2316C280.18 47.2649 278.961 47.7345 277.93 47.1709C277.462 46.9831 277.087 46.7952 276.712 46.7013C276.43 46.6074 276.243 46.6074 275.962 46.6074C275.399 46.6074 274.743 46.7013 274.181 46.9831C273.525 47.2649 272.962 47.7345 272.306 48.3921C271.65 48.9557 271.088 49.8011 270.619 50.7404C270.057 51.7737 269.588 53.0887 269.213 54.5916C268.932 55.7188 268.744 57.5036 268.557 59.9458C268.369 62.482 268.276 65.6757 268.276 69.527V84.838C268.276 86.247 267.244 87.3742 265.932 87.3742H260.402C259.09 87.3742 258.058 86.247 258.058 84.838V39.5624C258.058 38.1534 259.09 37.0262 260.402 37.0262H260.496Z" fill="url(#paint3_linear_2087_43383)"/>
    <defs>
        <linearGradient id="paint0_linear_2087_43383" x1="0.285156" y1="3369.87" x2="8783.25" y2="3369.87" gradientUnits="userSpaceOnUse">
            <stop stop-color="#BBCBD8"/>
            <stop offset="0.690196" stop-color="#8299AE"/>
            <stop offset="1" stop-color="#496783"/>
        </linearGradient>
        <linearGradient id="paint1_linear_2087_43383" x1="15.6229" y1="83.3438" x2="15.6229" y2="7.94205" gradientUnits="userSpaceOnUse">
            <stop stop-color="#27374E"/>
            <stop offset="0.301961" stop-color="#718193"/>
            <stop offset="1" stop-color="#BBCBD8"/>
        </linearGradient>
        <linearGradient id="paint2_linear_2087_43383" x1="-0.560457" y1="32.8044" x2="88.0444" y2="32.8044" gradientUnits="userSpaceOnUse">
            <stop stop-color="#496783"/>
            <stop offset="0.301961" stop-color="#8299AD"/>
            <stop offset="1" stop-color="#BBCBD8"/>
        </linearGradient>
        <linearGradient id="paint3_linear_2087_43383" x1="88.5425" y1="61.8104" x2="282.267" y2="61.8104" gradientUnits="userSpaceOnUse">
            <stop stop-color="#BBCBD8"/>
            <stop offset="1" stop-color="#27374E"/>
        </linearGradient>
    </defs>
</svg>
