<svg width="35" height="34" viewBox="0 0 35 34" fill="none" xmlns="http://www.w3.org/2000/svg">    <path d="M5.86842 0H29.1316C30.5554 0 31.9209 0.5656 32.9276 1.57237C33.9344 2.57915 34.5 3.94463 34.5 5.36842V28.6316C34.5 30.0554 33.9344 31.4209 32.9276 32.4276C31.9209 33.4344 30.5554 34 29.1316 34H5.86842C4.44463 34 3.07915 33.4344 2.07237 32.4276C1.0656 31.4209 0.5 30.0554 0.5 28.6316V5.36842C0.5 3.94463 1.0656 2.57915 2.07237 1.57237C3.07915 0.5656 4.44463 0 5.86842 0ZM5.86842 1.78947C4.91923 1.78947 4.00891 2.16654 3.33772 2.83772C2.66654 3.50891 2.28947 4.41923 2.28947 5.36842V26.1084L9.96632 18.4137L14.44 22.8874L23.3874 13.94L32.7105 23.2632V5.36842C32.7105 4.41923 32.3335 3.50891 31.6623 2.83772C30.9911 2.16654 30.0808 1.78947 29.1316 1.78947H5.86842ZM14.44 25.4284L9.96632 20.9547L2.28947 28.6316C2.28947 29.5808 2.66654 30.4911 3.33772 31.1623C4.00891 31.8335 4.91923 32.2105 5.86842 32.2105H29.1316C30.0808 32.2105 30.9911 31.8335 31.6623 31.1623C32.3335 30.4911 32.7105 29.5808 32.7105 28.6316V25.7863L23.3874 16.4811L14.44 25.4284ZM10.3421 5.36842C11.5286 5.36842 12.6665 5.83975 13.5055 6.67873C14.3445 7.51771 14.8158 8.65561 14.8158 9.8421C14.8158 11.0286 14.3445 12.1665 13.5055 13.0055C12.6665 13.8445 11.5286 14.3158 10.3421 14.3158C9.15561 14.3158 8.01771 13.8445 7.17873 13.0055C6.33975 12.1665 5.86842 11.0286 5.86842 9.8421C5.86842 8.65561 6.33975 7.51771 7.17873 6.67873C8.01771 5.83975 9.15561 5.36842 10.3421 5.36842ZM10.3421 7.15789C9.63021 7.15789 8.94747 7.44069 8.44408 7.94408C7.94069 8.44747 7.65789 9.13021 7.65789 9.8421C7.65789 10.554 7.94069 11.2367 8.44408 11.7401C8.94747 12.2435 9.63021 12.5263 10.3421 12.5263C11.054 12.5263 11.7367 12.2435 12.2401 11.7401C12.7435 11.2367 13.0263 10.554 13.0263 9.8421C13.0263 9.13021 12.7435 8.44747 12.2401 7.94408C11.7367 7.44069 11.054 7.15789 10.3421 7.15789Z" fill="#26374E"/></svg>