<svg width="14" height="15" viewBox="0 0 14 15" fill="none" xmlns="http://www.w3.org/2000/svg">
    <path fill-rule="evenodd" clip-rule="evenodd" d="M11.0408 2.39431C13.5666 4.92005 13.5666 9.01509 11.0408 11.5408C8.51509 14.0666 4.42005 14.0666 1.89431 11.5408C-0.631434 9.01509 -0.631438 4.92005 1.89431 2.39431C4.42005 -0.131438 8.51509 -0.131434 11.0408 2.39431ZM10.5028 2.93234C12.7314 5.16094 12.7314 8.7742 10.5028 11.0028C8.2742 13.2314 4.66094 13.2314 2.43234 11.0028C0.203743 8.7742 0.203734 5.16094 2.43234 2.93234C4.66094 0.703734 8.2742 0.703743 10.5028 2.93234Z" fill="#26374E"/>
    <path d="M11.0408 11.5408L11.3098 11.2718L14 13.962L13.462 14.5L10.7718 11.8098L11.0408 11.5408Z" fill="#26374E"/>
</svg>
