<svg width="34" height="34" viewBox="0 0 34 34" fill="none" xmlns="http://www.w3.org/2000/svg">
<rect width="34" height="34" rx="17" fill="#FAF9F7"/>
<path d="M17.0311 22.8111C17.277 22.8111 17.4844 22.7267 17.6533 22.5578C17.8222 22.3889 17.9067 22.1815 17.9067 21.9356C17.9067 21.6896 17.8215 21.4822 17.6511 21.3133C17.4822 21.1444 17.2748 21.06 17.0289 21.06C16.783 21.06 16.5756 21.1448 16.4067 21.3144C16.2378 21.4841 16.1537 21.6915 16.1544 21.9367C16.1544 22.1826 16.2389 22.39 16.4078 22.5589C16.5781 22.7278 16.7859 22.8122 17.0311 22.8122M16.4567 19.1322H17.53C17.5581 18.6493 17.6489 18.2567 17.8022 17.9544C17.9556 17.653 18.2707 17.2678 18.7478 16.7989C19.2441 16.3033 19.613 15.8593 19.8544 15.4667C20.0959 15.0741 20.217 14.62 20.2178 14.1044C20.2178 13.2289 19.9104 12.5311 19.2956 12.0111C18.68 11.4911 17.9519 11.2311 17.1111 11.2311C16.3119 11.2311 15.6333 11.4481 15.0756 11.8822C14.5178 12.317 14.1093 12.8163 13.85 13.38L14.8722 13.8033C15.05 13.3989 15.3044 13.0415 15.6356 12.7311C15.9667 12.42 16.4444 12.2644 17.0689 12.2644C17.7889 12.2644 18.3148 12.4622 18.6467 12.8578C18.9793 13.2533 19.1456 13.6881 19.1456 14.1622C19.1456 14.5474 19.0415 14.8911 18.8333 15.1933C18.6259 15.4963 18.3556 15.8007 18.0222 16.1067C17.3778 16.7007 16.9556 17.2044 16.7556 17.6178C16.5556 18.0311 16.4559 18.5359 16.4567 19.1322ZM17.0033 27C15.6211 27 14.3211 26.7378 13.1033 26.2133C11.8863 25.6881 10.8274 24.9756 9.92667 24.0756C9.02593 23.1756 8.31296 22.1178 7.78778 20.9022C7.26259 19.6867 7 18.387 7 17.0033C7 15.6196 7.26259 14.3196 7.78778 13.1033C8.31222 11.8863 9.0237 10.8274 9.92222 9.92667C10.8207 9.02593 11.8789 8.31296 13.0967 7.78778C14.3144 7.26259 15.6144 7 16.9967 7C18.3789 7 19.6789 7.26259 20.8967 7.78778C22.1137 8.31222 23.1726 9.02407 24.0733 9.92333C24.9741 10.8226 25.687 11.8807 26.2122 13.0978C26.7374 14.3148 27 15.6144 27 16.9967C27 18.3789 26.7378 19.6789 26.2133 20.8967C25.6889 22.1144 24.9763 23.1733 24.0756 24.0733C23.1748 24.9733 22.117 25.6863 20.9022 26.2122C19.6874 26.7381 18.3878 27.0007 17.0033 27ZM17 25.8889C19.4815 25.8889 21.5833 25.0278 23.3056 23.3056C25.0278 21.5833 25.8889 19.4815 25.8889 17C25.8889 14.5185 25.0278 12.4167 23.3056 10.6944C21.5833 8.97222 19.4815 8.11111 17 8.11111C14.5185 8.11111 12.4167 8.97222 10.6944 10.6944C8.97222 12.4167 8.11111 14.5185 8.11111 17C8.11111 19.4815 8.97222 21.5833 10.6944 23.3056C12.4167 25.0278 14.5185 25.8889 17 25.8889Z" fill="#999999"/>
</svg>
