<svg width="99" height="36" viewBox="0 0 99 36" fill="none" xmlns="http://www.w3.org/2000/svg">
<path d="M28.3944 7.32227C28.6558 8.42778 30.3549 9.59833 30.7143 15.256C30.7143 23.6449 23.8525 30.5056 15.3897 30.5056H3.56123C1.63339 30.5056 0.0976562 28.9449 0.0976562 27.059V23.7099H15.4223C22.6762 23.7099 26.8587 14.1179 28.4271 7.35478L28.3944 7.32227Z" fill="url(#paint0_linear_2673_6947)"/>
<path d="M7.4846 27.0252V25.4644V23.7086V0.980469L0.00197657 3.12647V23.7086V25.4644V27.0252C0.00197657 27.9681 -0.0633739 29.3663 0.557455 29.984C1.17828 30.6018 2.51797 30.4718 3.49822 30.4718H7.51728H10.9808C9.05301 30.4718 7.51728 28.911 7.51728 27.0252H7.4846Z" fill="url(#paint1_linear_2673_6947)"/>
<path d="M15.3247 0.00561863H3.49625C2.54867 0.00561863 1.01293 -0.0919271 0.392103 0.525862C-0.163376 1.07862 0.130701 2.28168 0.0326752 3.12708H0V3.48475V6.83382V10.2804C0 8.36203 1.56841 6.83382 3.46357 6.83382H7.48263H15.292C22.5459 6.83382 27.0878 16.0356 28.6562 22.7988C28.9176 21.6933 30.4533 21.108 30.6494 15.2553C30.6494 6.86633 23.7222 0.00561863 15.2593 0.00561863H15.3247Z" fill="url(#paint2_linear_2673_6947)"/>
<path fill-rule="evenodd" clip-rule="evenodd" d="M44.406 23.4498L45.9418 24.3278C46.3339 24.5554 46.4972 25.0756 46.2685 25.4983C45.9744 26.0836 45.6804 26.6038 45.3536 27.0915C45.0269 27.5793 44.6674 28.002 44.2753 28.3922C44.2753 28.3922 44.2426 28.4247 44.21 28.4247C43.8505 28.7823 43.4584 29.075 43.0663 29.3676C42.6416 29.6602 42.1841 29.8879 41.7267 30.0829L41.694 30.1155C41.2365 30.3106 40.7464 30.4406 40.2236 30.5382C39.7008 30.6357 39.1453 30.6682 38.5572 30.6682C35.9431 30.6682 33.8519 29.7253 32.3489 27.8394C31.5973 26.929 31.0745 25.9535 30.6824 24.913C30.323 23.8725 30.127 22.767 30.127 21.5965C30.127 20.5235 30.2903 19.483 30.6171 18.5075C30.9438 17.5321 31.4013 16.6216 32.0221 15.7762C32.8063 14.6707 33.7539 13.8579 34.8322 13.3051C35.9105 12.7523 37.1194 12.4922 38.4265 12.4922C39.7988 12.4922 41.0405 12.7848 42.1188 13.3376C43.2297 13.8904 44.1773 14.7358 45.0269 15.8738C45.615 16.6542 46.0725 17.5646 46.3665 18.54C46.6606 19.5155 46.824 20.5885 46.824 21.759C46.824 22.2468 46.4646 22.637 46.0398 22.637H33.7539C33.8193 23.0922 33.9173 23.5149 34.0807 23.9376C34.3094 24.5879 34.6361 25.1406 35.0936 25.6284C35.551 26.1161 36.0412 26.5063 36.5966 26.7339C37.1521 26.994 37.7403 27.0915 38.4265 27.0915C38.7532 27.0915 39.08 27.059 39.4067 26.994C39.7335 26.929 40.0275 26.8314 40.3543 26.7339C40.6484 26.6038 40.9425 26.4738 41.2039 26.3112C41.4653 26.1486 41.694 25.986 41.89 25.7909L41.9227 25.7584C42.1188 25.5633 42.3148 25.3357 42.5435 25.0106C42.7723 24.6854 43.0337 24.2627 43.2951 23.775C43.5238 23.3523 44.0139 23.2222 44.406 23.4824V23.4498ZM42.903 19.0928C42.8703 19.0278 42.8376 18.9302 42.8049 18.8652C42.6416 18.5075 42.4782 18.1824 42.2821 17.9223C42.0861 17.6621 41.8574 17.402 41.596 17.2069C41.3346 16.9793 41.0078 16.7842 40.681 16.6216C40.3543 16.4591 39.9949 16.329 39.6354 16.2315H39.5701C39.2433 16.1664 38.8839 16.1339 38.5245 16.1339C37.9037 16.1339 37.3155 16.2315 36.7927 16.4591C36.2699 16.6542 35.7798 16.9793 35.355 17.402L35.3223 17.4345C35.0282 17.7272 34.7668 18.0848 34.5381 18.54C34.4401 18.7351 34.3421 18.9302 34.2767 19.1253H42.9356L42.903 19.0928ZM49.242 6.76953H51.1044C51.5619 6.76953 51.9213 7.15971 51.9213 7.64744V29.3676C51.9213 29.8553 51.5619 30.2455 51.1044 30.2455H49.242C48.7845 30.2455 48.4251 29.8553 48.4251 29.3676V7.64744C48.4251 7.15971 48.7845 6.76953 49.242 6.76953ZM55.0255 12.8174H56.888C57.3454 12.8174 57.7048 13.2075 57.7048 13.6953V14.3456C58.1296 13.9554 58.5871 13.5977 59.0772 13.3376C59.6327 13.045 60.1882 12.8174 60.809 12.6548C61.3971 12.4922 62.0506 12.4272 62.7041 12.4272C63.8478 12.4272 64.9261 12.6548 65.9063 13.11C66.8866 13.5652 67.7688 14.2155 68.5857 15.0934C69.4026 15.9713 69.9907 16.9468 70.4155 18.0198C70.8403 19.0928 71.0363 20.2633 71.0363 21.4989C71.0363 22.767 70.8403 23.9376 70.4155 25.0106C70.0234 26.0836 69.4026 27.0915 68.6184 27.9695V28.002C67.8342 28.8799 66.9192 29.5302 65.9717 29.9854C64.9914 30.4406 63.9131 30.6682 62.8022 30.6682C62.1813 30.6682 61.5605 30.6032 60.9724 30.4406C60.3842 30.3106 59.7961 30.0829 59.2732 29.7903C58.7504 29.5302 58.2603 29.1725 57.8029 28.7823V35.1228C57.8029 35.6105 57.4434 36.0007 56.986 36.0007H55.1235C54.666 36.0007 54.3066 35.6105 54.3066 35.1228V13.7278C54.3066 13.2401 54.666 12.8499 55.1235 12.8499L55.0255 12.8174ZM62.5408 16.1339C61.8219 16.1339 61.2011 16.264 60.6129 16.5241C60.0248 16.7842 59.502 17.1744 59.0445 17.6946C58.5544 18.2149 58.2276 18.8002 57.9662 19.4505V19.483C57.7375 20.1333 57.6068 20.8486 57.6068 21.5965C57.6068 22.637 57.8029 23.5474 58.2276 24.3603C58.4237 24.7505 58.6851 25.1406 58.9792 25.4333C59.2732 25.7584 59.6327 26.0185 60.0248 26.2787L60.0575 26.3112C60.4496 26.5388 60.8417 26.7014 61.2664 26.8314C61.6912 26.9615 62.116 26.994 62.5408 26.994C62.9655 26.994 63.3903 26.929 63.7824 26.8314H63.8151C64.2072 26.7014 64.5993 26.5388 64.9587 26.3112C65.3508 26.0836 65.6776 25.7909 65.9717 25.4658C66.2657 25.1406 66.5271 24.7505 66.7559 24.2952C66.9846 23.8725 67.148 23.4173 67.2787 22.9621C67.3767 22.5069 67.4421 22.0517 67.4421 21.564C67.4421 21.0762 67.3767 20.621 67.2787 20.1658C67.1806 19.7106 66.9846 19.2554 66.7559 18.8327C66.5271 18.41 66.2657 18.0198 65.9717 17.6946C65.6776 17.3695 65.3508 17.0769 64.9587 16.8493C64.5666 16.6216 64.1745 16.4266 63.7824 16.329C63.3577 16.1989 62.9329 16.1664 62.4754 16.1664L62.5408 16.1339ZM86.3937 23.4173L87.9294 24.2952C88.3215 24.5228 88.4849 25.0431 88.2562 25.4658C87.9621 26.0511 87.668 26.5713 87.3413 27.059C87.0145 27.5468 86.6551 27.9695 86.263 28.3596C86.263 28.3596 86.2303 28.3922 86.1976 28.3922C85.8382 28.7498 85.4461 29.0425 85.054 29.3351C84.6292 29.6277 84.1718 29.8553 83.7143 30.0504L83.6816 30.0829C83.2242 30.278 82.7341 30.4081 82.2113 30.5056C81.6884 30.6032 81.133 30.6357 80.5448 30.6357C77.9308 30.6357 75.8396 29.6928 74.3365 27.8069C73.585 26.8965 73.0622 25.921 72.6701 24.8805C72.3107 23.84 72.1146 22.7345 72.1146 21.564C72.1146 20.491 72.278 19.4505 72.6047 18.475C72.9315 17.4996 73.3889 16.5891 74.0098 15.7437C74.794 14.6382 75.7416 13.8253 76.8198 13.2726C77.8981 12.7198 79.1071 12.4597 80.4141 12.4597C81.7865 12.4597 83.0281 12.7523 84.1064 13.3051C85.2174 13.8579 86.165 14.7032 87.0145 15.8413C87.6027 16.6216 88.0601 17.5321 88.3542 18.5075C88.6483 19.483 88.8116 20.556 88.8116 21.7265C88.8116 22.2143 88.4522 22.6044 88.0274 22.6044H75.7416C75.8069 23.0597 75.9049 23.4824 76.0683 23.9051C76.297 24.5554 76.6238 25.1081 77.0812 25.5958C77.5387 26.0836 78.0288 26.4738 78.5843 26.7014C79.1398 26.9615 79.7279 27.059 80.4141 27.059C80.7409 27.059 81.0676 27.0265 81.3944 26.9615C81.7211 26.8965 82.0152 26.7989 82.3419 26.7014C82.636 26.5713 82.9301 26.4412 83.1915 26.2787C83.4529 26.1161 83.6816 25.9535 83.8777 25.7584L83.9104 25.7259C84.1064 25.5308 84.3025 25.3032 84.5312 24.9781C84.7599 24.6529 85.0213 24.2302 85.2827 23.7425C85.5114 23.3198 86.0016 23.1897 86.3937 23.4498V23.4173ZM84.8906 19.0603C84.8579 18.9953 84.8253 18.8977 84.7926 18.8327C84.6292 18.475 84.4658 18.1499 84.2698 17.8897C84.0737 17.6296 83.845 17.3695 83.5836 17.1744C83.3222 16.9468 82.9955 16.7517 82.6687 16.5891C82.3419 16.4266 81.9825 16.2965 81.6231 16.1989H81.5577C81.231 16.1339 80.8716 16.1014 80.5121 16.1014C79.8913 16.1014 79.3032 16.1989 78.7804 16.4266C78.2575 16.6216 77.7674 16.9468 77.3426 17.3695L77.31 17.402C77.0159 17.6946 76.7545 18.0523 76.5258 18.5075C76.4277 18.7026 76.3297 18.8977 76.2644 19.0928H84.9233L84.8906 19.0603ZM90.8048 12.8174H92.7327C93.1901 12.8174 93.5495 13.2075 93.5495 13.6953C93.7456 13.5327 93.909 13.3701 94.105 13.2401C94.4971 12.9799 94.8892 12.7848 95.2813 12.6548C95.7061 12.5247 96.0982 12.4597 96.523 12.4597C97.1765 12.4597 97.8627 12.6873 98.5815 13.11C98.9736 13.3376 99.1043 13.8579 98.9083 14.2805L98.8756 14.3131L97.8954 16.0039C97.6666 16.3615 97.2419 16.5241 96.8824 16.329C96.719 16.264 96.5883 16.1989 96.4576 16.1664C96.3596 16.1339 96.2943 16.1339 96.1962 16.1339C96.0002 16.1339 95.7715 16.1664 95.5754 16.264C95.3467 16.3615 95.1506 16.5241 94.9219 16.7517C94.6932 16.9468 94.4971 17.2394 94.3338 17.5646C94.1377 17.9223 93.9743 18.3775 93.8436 18.8977C93.7456 19.2879 93.6803 19.9057 93.6149 20.7511C93.5495 21.629 93.5169 22.7345 93.5169 24.0676V29.3676C93.5169 29.8553 93.1574 30.2455 92.7 30.2455H90.7722C90.3147 30.2455 89.9553 29.8553 89.9553 29.3676V13.6953C89.9553 13.2075 90.3147 12.8174 90.7722 12.8174H90.8048Z" fill="url(#paint3_linear_2673_6947)"/>
<defs>
<linearGradient id="paint0_linear_2673_6947" x1="0.0976562" y1="1166.49" x2="3061.77" y2="1166.49" gradientUnits="userSpaceOnUse">
<stop stop-color="#BBCBD8"/>
<stop offset="0.690196" stop-color="#8299AE"/>
<stop offset="1" stop-color="#496783"/>
</linearGradient>
<linearGradient id="paint1_linear_2673_6947" x1="5.44599" y1="28.8493" x2="5.44599" y2="2.74865" gradientUnits="userSpaceOnUse">
<stop stop-color="#27374E"/>
<stop offset="0.301961" stop-color="#718193"/>
<stop offset="1" stop-color="#BBCBD8"/>
</linearGradient>
<linearGradient id="paint2_linear_2673_6947" x1="-0.196051" y1="11.3554" x2="30.6909" y2="11.3554" gradientUnits="userSpaceOnUse">
<stop stop-color="#496783"/>
<stop offset="0.301961" stop-color="#8299AD"/>
<stop offset="1" stop-color="#BBCBD8"/>
</linearGradient>
<linearGradient id="paint3_linear_2673_6947" x1="30.8635" y1="21.3965" x2="98.3943" y2="21.3965" gradientUnits="userSpaceOnUse">
<stop stop-color="#BBCBD8"/>
<stop offset="1" stop-color="#27374E"/>
</linearGradient>
</defs>
</svg>
